<svg width="1600" height="900" viewBox="0 0 1600 900" fill="none" xmlns="http://www.w3.org/2000/svg">
  <defs>
    <linearGradient id="bg2" x1="0" y1="0" x2="1600" y2="900" gradientUnits="userSpaceOnUse">
      <stop stop-color="#05080B"/>
      <stop offset="1" stop-color="#0A1117"/>
    </linearGradient>
    <linearGradient id="limeLine2" x1="0" y1="0" x2="1" y2="1">
      <stop stop-color="#B5FF48" stop-opacity="0.95"/>
      <stop offset="1" stop-color="#7FD13A" stop-opacity="0.15"/>
    </linearGradient>
    <filter id="glow2" x="-50%" y="-50%" width="200%" height="200%">
      <feGaussianBlur stdDeviation="18" result="blur"/>
      <feMerge><feMergeNode in="blur"/><feMergeNode in="SourceGraphic"/></feMerge>
    </filter>
  </defs>
  <rect width="1600" height="900" fill="url(#bg2)"/>
  <rect x="40" y="40" width="1520" height="820" rx="34" stroke="#222E37" stroke-width="2"/>
  <path d="M0 220 C160 210 280 235 420 290" stroke="url(#limeLine2)" stroke-width="14" filter="url(#glow2)"/>
  <path d="M1600 140 C1450 155 1330 190 1180 290" stroke="url(#limeLine2)" stroke-width="12" filter="url(#glow2)"/>
  <path d="M1600 760 C1440 730 1310 660 1200 560" stroke="url(#limeLine2)" stroke-width="16" filter="url(#glow2)"/>

  <rect x="90" y="100" width="620" height="700" rx="28" fill="#0C1217" stroke="#1F2B33" stroke-width="2"/>
  <rect x="770" y="120" width="680" height="210" rx="28" fill="#0E151B" stroke="#1F2B33" stroke-width="2"/>
  <rect x="770" y="360" width="310" height="180" rx="28" fill="#0C1217" stroke="#1F2B33" stroke-width="2"/>
  <rect x="1110" y="360" width="340" height="180" rx="28" fill="#0C1217" stroke="#1F2B33" stroke-width="2"/>
  <rect x="900" y="575" width="550" height="180" rx="28" fill="#0C1217" stroke="#1F2B33" stroke-width="2"/>

  <rect x="130" y="250" width="600" height="455" rx="34" fill="#081015" fill-opacity="0.92" stroke="#32444E" stroke-width="2"/>
  <text x="170" y="315" fill="#B5FF48" font-size="30" font-family="Arial, Helvetica, sans-serif" font-weight="700" letter-spacing="2">AGENCY WORKFLOWS</text>
  <text x="170" y="410" fill="#F4F7FA" font-size="84" font-family="Arial, Helvetica, sans-serif" font-weight="700">
    <tspan x="170" dy="0">SEO + AI</tspan>
    <tspan x="170" dy="96">Workflows That</tspan>
    <tspan x="170" dy="96">Actually Save</tspan>
    <tspan x="170" dy="96">Agencies Time</tspan>
  </text>
  <text x="170" y="675" fill="#97A2AC" font-size="24" font-family="Arial, Helvetica, sans-serif">Surnex blog cover demo</text>

  <g opacity="0.9">
    <rect x="820" y="160" width="180" height="16" rx="8" fill="#27333D"/>
    <rect x="820" y="195" width="520" height="18" rx="9" fill="#1F2B33"/>
    <rect x="820" y="230" width="420" height="18" rx="9" fill="#1F2B33"/>
    <rect x="820" y="265" width="330" height="18" rx="9" fill="#1F2B33"/>
    <rect x="800" y="390" width="250" height="32" rx="16" fill="#121B22"/>
    <rect x="800" y="440" width="220" height="18" rx="9" fill="#27333D"/>
    <rect x="800" y="470" width="250" height="18" rx="9" fill="#27333D"/>
    <rect x="1140" y="395" width="240" height="110" rx="20" fill="#121B22"/>
    <path d="M1180 480 L1230 450 L1280 458 L1340 420" stroke="#B5FF48" stroke-width="5" fill="none"/>
    <circle cx="1180" cy="480" r="6" fill="#B5FF48"/><circle cx="1230" cy="450" r="6" fill="#B5FF48"/><circle cx="1280" cy="458" r="6" fill="#B5FF48"/><circle cx="1340" cy="420" r="6" fill="#B5FF48"/>
    <rect x="940" y="610" width="470" height="105" rx="20" fill="#121B22"/>
  </g>

  <line x1="70" y1="70" x2="250" y2="70" stroke="#91E440" stroke-width="3"/>
  <line x1="1350" y1="830" x2="1530" y2="830" stroke="#91E440" stroke-width="3"/>
</svg>
