<svg width="1600" height="900" viewBox="0 0 1600 900" fill="none" xmlns="http://www.w3.org/2000/svg">
  <defs>
    <linearGradient id="bg3" x1="0" y1="0" x2="1600" y2="900" gradientUnits="userSpaceOnUse">
      <stop stop-color="#06090C"/>
      <stop offset="1" stop-color="#0C1319"/>
    </linearGradient>
    <linearGradient id="limeLine3" x1="0" y1="0" x2="1" y2="1">
      <stop stop-color="#B5FF48" stop-opacity="0.95"/>
      <stop offset="1" stop-color="#7FD13A" stop-opacity="0.12"/>
    </linearGradient>
    <filter id="glow3" x="-50%" y="-50%" width="200%" height="200%">
      <feGaussianBlur stdDeviation="18" result="blur"/>
      <feMerge><feMergeNode in="blur"/><feMergeNode in="SourceGraphic"/></feMerge>
    </filter>
  </defs>
  <rect width="1600" height="900" fill="url(#bg3)"/>
  <rect x="40" y="40" width="1520" height="820" rx="34" stroke="#222E37" stroke-width="2"/>
  <path d="M0 730 C120 690 240 650 380 560" stroke="url(#limeLine3)" stroke-width="16" filter="url(#glow3)"/>
  <path d="M0 170 C150 175 260 210 410 280" stroke="url(#limeLine3)" stroke-width="12" filter="url(#glow3)"/>
  <path d="M1600 210 C1460 210 1320 235 1170 325" stroke="url(#limeLine3)" stroke-width="14" filter="url(#glow3)"/>

  <rect x="90" y="100" width="620" height="700" rx="28" fill="#0C1217" stroke="#1F2B33" stroke-width="2"/>
  <rect x="770" y="120" width="680" height="250" rx="28" fill="#0E151B" stroke="#1F2B33" stroke-width="2"/>
  <rect x="770" y="410" width="300" height="300" rx="28" fill="#0C1217" stroke="#1F2B33" stroke-width="2"/>
  <rect x="1100" y="410" width="350" height="300" rx="28" fill="#0C1217" stroke="#1F2B33" stroke-width="2"/>

  <rect x="130" y="250" width="600" height="455" rx="34" fill="#081015" fill-opacity="0.92" stroke="#32444E" stroke-width="2"/>
  <text x="170" y="315" fill="#B5FF48" font-size="30" font-family="Arial, Helvetica, sans-serif" font-weight="700" letter-spacing="2">REPORTING</text>
  <text x="170" y="410" fill="#F4F7FA" font-size="78" font-family="Arial, Helvetica, sans-serif" font-weight="700">
    <tspan x="170" dy="0">What Clients</tspan>
    <tspan x="170" dy="90">Actually Want</tspan>
    <tspan x="170" dy="90">in Modern SEO</tspan>
    <tspan x="170" dy="90">Reporting</tspan>
  </text>
  <text x="170" y="675" fill="#97A2AC" font-size="24" font-family="Arial, Helvetica, sans-serif">Surnex blog cover demo</text>

  <g opacity="0.92">
    <rect x="815" y="160" width="590" height="30" rx="15" fill="#121B22"/>
    <rect x="815" y="210" width="510" height="18" rx="9" fill="#27333D"/>
    <rect x="815" y="242" width="420" height="18" rx="9" fill="#27333D"/>
    <rect x="815" y="274" width="350" height="18" rx="9" fill="#27333D"/>

    <rect x="815" y="455" width="210" height="18" rx="9" fill="#27333D"/>
    <rect x="815" y="490" width="210" height="18" rx="9" fill="#27333D"/>
    <rect x="815" y="525" width="210" height="18" rx="9" fill="#27333D"/>
    <rect x="815" y="560" width="210" height="18" rx="9" fill="#27333D"/>
    <rect x="815" y="595" width="210" height="18" rx="9" fill="#27333D"/>

    <rect x="1140" y="455" width="270" height="170" rx="22" fill="#121B22"/>
    <path d="M1170 590 L1225 548 L1280 565 L1340 520 L1385 485" stroke="#B5FF48" stroke-width="5" fill="none"/>
    <circle cx="1170" cy="590" r="6" fill="#B5FF48"/><circle cx="1225" cy="548" r="6" fill="#B5FF48"/><circle cx="1280" cy="565" r="6" fill="#B5FF48"/><circle cx="1340" cy="520" r="6" fill="#B5FF48"/><circle cx="1385" cy="485" r="6" fill="#B5FF48"/>
  </g>

  <line x1="70" y1="70" x2="250" y2="70" stroke="#91E440" stroke-width="3"/>
  <line x1="1350" y1="830" x2="1530" y2="830" stroke="#91E440" stroke-width="3"/>
</svg>
